<svg xmlns="http://www.w3.org/2000/svg" width="16" height="13" viewBox="0 0 16 13">
    <g fill="none" fill-rule="evenodd">
        <g fill="#FFF" fill-rule="nonzero">
            <g>
                <g>
                    <g>
                        <path d="M6.163 15.304c.227-.02.496-.106.642-.228l5.131-4.174c.456-.407.496-1.04.16-1.467-.335-.427-1.023-.505-1.443-.163L7.19 12.087V1.043C7.19.467 6.73 0 6.163 0c-.567 0-1.026.467-1.026 1.043v11.044L1.673 9.272C1.253 8.93.58 9.02.23 9.435c-.382.45-.26 1.126.16 1.467l5.132 4.174c.212.177.368.225.641.228z" transform="translate(-265 -706) translate(232 688) translate(33 18) matrix(0 1 1 0 .5 .5)"/>
                    </g>
                </g>
            </g>
        </g>
    </g>
</svg>
