<svg xmlns="http://www.w3.org/2000/svg" width="102" height="34" viewBox="0 0 102 34">
    <g fill="none" fill-rule="evenodd">
        <g>
            <g>
                <path fill="#7D4B23" d="M49.658 19.62c1.657-5.127-5-11.086-.832-19.351-4.722.318-8.46 4.518-8.46 9.669 0 5.356 4.042 9.696 9.031 9.696.088 0 .173-.01.26-.013" transform="translate(-20 -25) translate(20 25)"/>
                <path fill="#7D4B23" d="M50.27.24c-2.231 6.798 4.845 10.54.8 19.348 4.589-.46 8.178-4.603 8.178-9.65 0-5.339-4.014-9.666-8.977-9.698" transform="translate(-20 -25) translate(20 25)"/>
                <path fill="#C00" d="M73.856 18.831c-4.943 0-9.162-3.669-9.162-8.892 0-5.221 4.193-8.864 8.902-8.864 3.805 0 6.133 1.58 7.61 3.72l-3.547 2.369c-.672-1.02-1.76-2.064-3.984-2.064-2.589 0-4.168 2.114-4.168 4.84 0 2.725 1.631 4.866 4.322 4.866 2.278 0 3.39-1.02 4.14-2.395l3.625 2.293c-1.735 2.878-4.168 4.127-7.738 4.127M91.435 13.15h3.183L93.014 9.48l-1.579 3.668zm4.684 3.362h-6.133l-.88 2.09H84.5L93.065.972c.08-.178.234-.178.31 0l8.541 17.63h-4.865l-.932-2.09zM27.7 18.78c-.077.153-.233.153-.31 0l-8.28-17.5h5.02l3.597 8.074L31.22 1.28h4.788l-8.307 17.5M.052 1.279L12.396 1.279 12.396 5.177 4.762 5.177 4.762 8.029 11.128 8.029 11.128 11.723 4.762 11.723 4.762 14.704 12.758 14.704 12.758 18.602.052 18.602.052 1.279" transform="translate(-20 -25) translate(20 25)"/>
                <path fill="#141412" d="M7.315 29.846v2.952c-.401.315-.845.558-1.333.73-.486.171-1.03.258-1.633.258-.557 0-1.096-.094-1.616-.28-.52-.187-.981-.455-1.383-.806-.401-.351-.723-.783-.964-1.296-.242-.512-.363-1.093-.363-1.745 0-.643.121-1.224.363-1.74.241-.516.56-.952.958-1.31.398-.359.852-.634 1.36-.824.51-.19 1.032-.286 1.567-.286.327 0 .63.025.91.071.278.049.538.116.78.204.24.089.47.192.69.313.22.12.434.254.642.4l-.335.483c-.386-.277-.8-.498-1.243-.664-.442-.164-.923-.25-1.444-.258-.505 0-.975.09-1.41.27-.435.179-.812.428-1.132.746-.32.318-.57.698-.752 1.141-.183.443-.273.928-.273 1.454 0 .542.096 1.034.29 1.477.192.442.456.819.79 1.13.336.31.726.55 1.172.719.446.168.918.252 1.416.252.453 0 .871-.06 1.254-.182.383-.12.738-.293 1.064-.52v-2.119H4.36v-.57h2.955M29.206 27.99c0-.27-.05-.52-.15-.745-.1-.227-.251-.422-.453-.587-.2-.165-.447-.294-.74-.39-.294-.096-.634-.142-1.02-.142-.395 0-.789.032-1.182.098v3.633c.141.014.304.029.49.044.186.014.364.022.535.022.826 0 1.451-.174 1.879-.521.427-.348.641-.818.641-1.411zm.39 5.686l-2.23-3.27c-.111.014-.226.025-.346.033-.118.006-.241.01-.367.01-.15 0-.318-.004-.508-.01-.19-.008-.35-.019-.484-.033v3.27h-.636v-7.967c.305-.038.592-.068.864-.094.271-.026.567-.038.886-.038.506 0 .952.058 1.338.175.387.118.71.28.97.488.26.209.458.46.591.752.134.294.2.615.2.966 0 .549-.163 1.028-.49 1.438-.327.41-.795.703-1.405.878l2.375 3.402h-.758zM53.56 29.66c0-.506-.084-.977-.251-1.417-.167-.439-.4-.819-.697-1.14-.298-.323-.652-.576-1.065-.758-.412-.183-.864-.274-1.354-.274-.49 0-.942.09-1.355.274-.412.182-.768.435-1.065.757-.297.322-.53.702-.697 1.141-.167.44-.25.91-.25 1.416 0 .505.083.975.25 1.41.168.436.4.815.697 1.137.297.321.653.574 1.065.757.413.182.864.274 1.355.274.49 0 .942-.092 1.354-.274.413-.183.767-.436 1.065-.757.297-.323.53-.701.697-1.136.167-.436.25-.906.25-1.41zm.68 0c0 .592-.106 1.14-.318 1.646-.212.504-.502.941-.87 1.312-.368.368-.799.656-1.293.86-.495.205-1.024.308-1.589.308-.557 0-1.081-.103-1.572-.307-.49-.205-.918-.493-1.282-.861-.364-.37-.65-.808-.859-1.312-.208-.506-.311-1.054-.311-1.647s.105-1.143.317-1.651c.212-.51.502-.948.87-1.317.368-.37.799-.659 1.293-.867.494-.209 1.024-.313 1.588-.313.558 0 1.083.104 1.573.313.49.208.918.497 1.282.867.364.369.65.808.859 1.317.208.508.312 1.058.312 1.651zM77.748 30.757c0 .468-.073.89-.217 1.268-.146.376-.352.695-.62.954-.267.26-.59.46-.97.598-.379.139-.798.209-1.26.209-.951 0-1.694-.26-2.23-.78-.535-.52-.802-1.27-.802-2.249v-5.126h.624v5.115c0 .819.219 1.438.658 1.855.439.417 1.022.625 1.75.625.365 0 .698-.053.998-.159.301-.106.557-.264.77-.473.212-.207.375-.467.49-.779.116-.31.173-.667.173-1.07v-5.114h.636v5.126M101.269 28.167c0-.272-.052-.528-.156-.774-.104-.245-.256-.46-.457-.647-.2-.187-.451-.337-.753-.45-.3-.114-.648-.17-1.042-.17-.194 0-.386.007-.58.021-.193.015-.375.034-.546.055v4.061l.496.05c.182.017.359.027.53.027.408 0 .77-.055 1.08-.164.313-.11.576-.261.788-.451.21-.19.371-.42.478-.686.108-.267.162-.558.162-.872zm.67-.033c0 .403-.073.771-.219 1.108-.144.336-.354.625-.629.867-.276.242-.61.43-1.004.566-.394.135-.843.202-1.348.202-.15 0-.319-.007-.508-.022-.19-.014-.354-.028-.496-.044v2.865h-.625v-7.99c.268-.036.54-.064.814-.081.275-.02.565-.029.87-.029.528 0 .988.07 1.383.209.393.139.72.325.98.56.261.234.456.505.586.812.13.307.195.633.195.977z" transform="translate(-20 -25) translate(20 25)"/>
            </g>
        </g>
    </g>
</svg>
